<svg width="46" height="46" viewBox="0 0 46 46" fill="none" xmlns="http://www.w3.org/2000/svg">
<path d="M7.66663 7.66663H11.8551C12.605 7.66663 12.98 7.66663 13.2513 7.87842C13.5225 8.09022 13.6135 8.45399 13.7954 9.18155L14.5758 12.3034C14.9396 13.7586 15.1215 14.4861 15.664 14.9097C16.2065 15.3333 16.9565 15.3333 18.4564 15.3333H19.1666" stroke="#2A2C41" stroke-width="2" stroke-linecap="round"/>
<path d="M34.5 32.5834H14.2749C13.0086 32.5834 12.3755 32.5834 12.0762 32.1681C11.7769 31.7528 11.9771 31.1522 12.3775 29.9509L12.505 29.5685C12.945 28.2484 13.165 27.5884 13.6888 27.2109C14.2125 26.8334 14.9083 26.8334 16.2997 26.8334H26.8333" stroke="#2A2C41" stroke-width="2" stroke-linecap="round" stroke-linejoin="round"/>
<path d="M31.3472 26.8334H17.0275C16.0499 26.8334 15.2155 26.1265 15.0548 25.1622L13.7077 17.08C13.5553 16.1657 14.2604 15.3334 15.1873 15.3334H36.7153C37.4586 15.3334 37.9421 16.1157 37.6097 16.7806L33.1361 25.7278C32.7973 26.4054 32.1048 26.8334 31.3472 26.8334Z" stroke="#2A2C41" stroke-width="2" stroke-linecap="round"/>
<circle cx="32.5833" cy="38.3333" r="1.91667" fill="#2A2C41"/>
<circle cx="17.25" cy="38.3333" r="1.91667" fill="#2A2C41"/>
</svg>
