<svg width="20" height="22" viewBox="0 0 20 22" fill="none" xmlns="http://www.w3.org/2000/svg">
<path d="M7.0918 17.9704C6.90426 17.9887 6.73567 18.069 6.60938 18.1901C6.57327 18.2247 6.5404 18.2627 6.51172 18.3034C6.45441 18.3848 6.41288 18.4774 6.3916 18.5768C6.38096 18.6266 6.37599 18.6784 6.37598 18.7311C6.37598 18.7839 6.38099 18.8357 6.3916 18.8854C6.46596 19.2339 6.78784 19.4966 7.17285 19.4968C7.22787 19.4968 7.28209 19.4913 7.33398 19.4811C7.4377 19.4608 7.53435 19.4209 7.61914 19.3659C7.83134 19.2284 7.9707 18.9951 7.9707 18.7311C7.97068 18.6255 7.94862 18.5248 7.9082 18.4333C7.86785 18.3419 7.8094 18.2593 7.7373 18.1901C7.61103 18.069 7.44241 17.9887 7.25488 17.9704L7.17285 17.9665L7.0918 17.9704ZM9.42969 17.9665V17.9675L9.43066 17.9684C9.43091 17.9693 9.4312 17.9708 9.43164 17.9724C9.43239 17.975 9.43334 17.9786 9.43457 17.9831C9.44395 18.0171 9.4655 18.1017 9.48926 18.2077C9.49147 18.2176 9.49485 18.2278 9.49707 18.238C9.52214 18.3533 9.54664 18.4895 9.55762 18.613C9.56128 18.6542 9.56347 18.694 9.56348 18.7311C9.56348 19.3646 9.29611 19.9382 8.86328 20.3532C8.75523 20.4568 8.63679 20.5502 8.50977 20.6325C8.19189 20.8385 7.81973 20.9732 7.41797 21.0124C7.3375 21.0202 7.25548 21.0241 7.17285 21.0241C7.09041 21.0241 7.009 21.0202 6.92871 21.0124C6.20552 20.9419 5.578 20.5622 5.19141 20.0134C5.0624 19.8302 4.9605 19.6284 4.89062 19.4128C4.82084 19.1974 4.7832 18.9685 4.7832 18.7311C4.78321 18.6567 4.79151 18.5717 4.80469 18.486C4.8178 18.4007 4.83507 18.3147 4.85254 18.238C4.85625 18.2217 4.86059 18.2055 4.86426 18.1901C4.88781 18.0915 4.90883 18.0137 4.91797 17.9821C4.91918 17.9779 4.92114 17.9749 4.92188 17.9724C4.92236 17.9707 4.92259 17.9693 4.92285 17.9684V17.9665H2.3916C2.14612 17.9638 1.90883 17.9254 1.68555 17.8571C1.53657 17.8116 1.39387 17.7523 1.25879 17.6813C1.12385 17.6104 0.996772 17.5276 0.878906 17.4343C0.761062 17.3409 0.652264 17.2375 0.554688 17.1247C0.505613 17.068 0.459356 17.009 0.416016 16.9479C0.157535 16.5837 0.00503536 16.1455 0.000976562 15.6735C-0.000338062 15.5178 0.00598229 15.3695 0.0205078 15.2282C0.0350505 15.0868 0.0574482 14.952 0.0878906 14.8229C0.118313 14.6939 0.156805 14.5707 0.203125 14.4518C0.249391 14.3332 0.303085 14.2187 0.365234 14.1081C0.614037 13.6651 0.990875 13.2784 1.49512 12.8786C1.52645 12.8537 1.59434 12.7974 1.66113 12.7429C1.72795 12.6883 1.79322 12.6348 1.81836 12.6149C1.92903 12.5273 2.02028 12.4513 2.09473 12.3825C2.16928 12.3136 2.22754 12.2523 2.27148 12.194C2.35936 12.0775 2.3916 11.9735 2.3916 11.8503V10.321C2.39162 10.0665 2.40899 9.81952 2.44238 9.58075C2.45353 9.50102 2.46671 9.42228 2.48145 9.34442C2.54035 9.03328 2.62759 8.7374 2.74121 8.45868C2.79794 8.31953 2.86108 8.1847 2.93066 8.05438C3.13966 7.66296 3.40513 7.31219 3.7207 7.00946C4.0362 6.70681 4.40165 6.45211 4.80957 6.25165C4.87771 6.21816 4.94709 6.18636 5.01758 6.15594C5.65056 5.88283 6.37685 5.7351 7.17285 5.73505C7.61516 5.73505 8.03638 5.7804 8.43164 5.86786C8.51082 5.88538 8.58892 5.90464 8.66602 5.92548C9.12777 6.0503 9.55194 6.23337 9.93066 6.46942C9.99389 6.50883 10.0555 6.55018 10.1162 6.59247C10.2979 6.71905 10.4683 6.85821 10.626 7.00946C10.9942 7.36266 11.2941 7.78122 11.5156 8.2536C11.6105 8.45589 11.6908 8.66802 11.7559 8.88934C11.8274 9.13292 11.8799 9.38755 11.9131 9.65204C11.9403 9.86864 11.9551 10.0917 11.9551 10.321C11.9551 10.321 11.9551 10.8947 11.9551 11.8503L11.9609 11.9391C11.9689 11.9966 11.9851 12.0517 12.0137 12.1081C12.0709 12.2208 12.1761 12.3391 12.3545 12.4929L12.5029 12.6149L12.6729 12.7429C12.7452 12.7967 12.819 12.8523 12.8516 12.8786C13.3492 13.2765 13.7228 13.6655 13.9717 14.11C14.0028 14.1656 14.0314 14.2225 14.0586 14.28C14.0858 14.3373 14.1114 14.3954 14.1348 14.4548C14.275 14.812 14.3451 15.2095 14.3457 15.6735C14.3462 16.1478 14.194 16.5892 13.9346 16.9557C13.8913 17.0169 13.8449 17.0757 13.7959 17.1325C13.6979 17.2459 13.5891 17.3504 13.4707 17.444C13.3522 17.5377 13.2244 17.6204 13.0889 17.6911C12.8858 17.797 12.6655 17.8752 12.4336 17.9206C12.2787 17.9509 12.1186 17.9671 11.9551 17.9665H9.43066H9.42969ZM7.17285 7.26239C6.62436 7.26244 6.13202 7.35639 5.70801 7.5329C5.37825 7.67017 5.08964 7.85753 4.84766 8.08954C4.81305 8.12274 4.77878 8.15706 4.74609 8.19208C4.71353 8.22696 4.68199 8.26284 4.65137 8.2995C4.40554 8.59378 4.22274 8.94478 4.11133 9.34442C4.09748 9.3941 4.08487 9.44461 4.07324 9.49579C4.03819 9.65002 4.01334 9.81098 3.99902 9.97821C3.98948 10.0897 3.98438 10.204 3.98438 10.321V11.8503L3.98047 12.0007C3.96015 12.3422 3.86869 12.628 3.70312 12.8942C3.67943 12.9323 3.65369 12.9701 3.62695 13.0075C3.60031 13.0448 3.57265 13.0821 3.54297 13.1188C3.36431 13.3402 3.12983 13.5543 2.83887 13.7849C2.80984 13.8078 2.73698 13.869 2.66406 13.9294C2.59101 13.9899 2.51777 14.0502 2.49023 14.072C2.1531 14.3394 1.92769 14.5639 1.78711 14.8093C1.68161 14.9935 1.62348 15.1895 1.60254 15.4245C1.59557 15.5027 1.59301 15.5857 1.59375 15.6735L1.59863 15.7516C1.64156 16.1383 1.9743 16.4332 2.3916 16.4382H11.9551C12.3283 16.4395 12.6598 16.1716 12.7363 15.8259C12.7473 15.7765 12.753 15.7255 12.7529 15.6735C12.7525 15.321 12.6953 15.0537 12.5547 14.8083C12.4141 14.563 12.1902 14.339 11.8564 14.072C11.8277 14.049 11.7486 13.9893 11.6699 13.9294C11.5913 13.8695 11.5127 13.8089 11.4824 13.7849C11.1007 13.4795 10.8204 13.199 10.6357 12.8932C10.4972 12.6638 10.4126 12.42 10.3789 12.1413C10.3677 12.0485 10.3623 11.9517 10.3623 11.8503V10.321C10.3623 10.204 10.3572 10.0897 10.3477 9.97821C10.2904 9.30915 10.0638 8.74063 9.69531 8.2995C9.6647 8.26284 9.63315 8.22696 9.60059 8.19208C9.5679 8.15706 9.53364 8.12274 9.49902 8.08954C9.25706 7.85753 8.96844 7.67017 8.63867 7.5329C8.21454 7.35634 7.72159 7.26239 7.17285 7.26239Z" fill="#2A2C41" stroke="#000001" stroke-width="0.001"/>
<circle cx="11.0682" cy="7.16759" r="5.25622" fill="#FFD700"/>
<path d="M11.4903 11V5.2H10.6903V4H12.8903V11H11.4903Z" fill="#2A2C41"/>
</svg>
